<svg width="533.9087890625px" height="121.38760375976562px" xmlns="http://www.w3.org/2000/svg" viewBox="-16.95439453124999 14.306198120117188 533.9087890625 121.38760375976562" style="background: none;" preserveAspectRatio="xMidYMid"><defs><linearGradient id="editing-shadow-gradient1" x1="0" x2="0" y1="0" y2="1"><stop offset="0" stop-color="#0099e5" stop-opacity="0"></stop><stop offset="0.2" stop-color="#0099e5" stop-opacity="0"></stop><stop offset="1" stop-color="#0099e5" stop-opacity="1"></stop></linearGradient><linearGradient id="editing-shadow-gradient2" x1="-0.2547095802227721" x2="1.2547095802227721" y1="-0.15605902899050716" y2="1.1560590289905073"><stop offset="0" stop-color="#ff4c4c"></stop><stop offset="1" stop-color="#34bf49"></stop></linearGradient><filter id="editing-shadow" x="-100%" y="-100%" width="300%" height="300%"><feGaussianBlur stdDeviation="2"></feGaussianBlur><feComposite operator="in" in2="SourceGraphic"></feComposite><feGaussianBlur stdDeviation="1"></feGaussianBlur></filter></defs><g transform="translate(250,75)"><g transform="translate(-20.4, -1.2)"><g transform="skewX(45)"><g filter="url(#editing-shadow)"><g transform="translate(-151.21610045433044, 24.030000686645508)"><path d="M42.62-26.56L42.62-26.56L42.62-26.56Q42.62 0.70 13.06 0.70L13.06 0.70L13.06 0.70Q8.32 0.70 0.51-0.45L0.51-0.45L7.68-38.27L7.68-38.27Q8.19-40.83 8.51-42.30L8.51-42.30L8.51-42.30Q18.24-43.01 22.56-43.01L22.56-43.01L22.56-43.01Q26.88-43.01 30.85-42.11L30.85-42.11L30.85-42.11Q34.82-41.22 37.44-39.23L37.44-39.23L37.44-39.23Q42.62-35.33 42.62-26.56ZM29.44-28.93L29.44-28.93L29.44-28.93Q29.44-38.46 22.59-38.46L22.59-38.46L21.95-38.46L21.95-38.46Q21.63-38.46 21.31-38.40L21.31-38.40L14.72-4.03L14.72-4.03Q14.98-3.90 15.23-3.90L15.23-3.90L15.74-3.90L15.74-3.90Q18.11-3.90 20.58-5.38L20.58-5.38L20.58-5.38Q23.04-6.85 24.96-9.86L24.96-9.86L24.96-9.86Q29.44-16.83 29.44-28.93ZM71.81-10.82L71.81-10.82L71.81-10.82Q73.41-9.73 73.41-7.33L73.41-7.33L73.41-7.33Q73.41-4.93 72.19-3.39L72.19-3.39L72.19-3.39Q70.98-1.86 68.99-0.83L68.99-0.83L68.99-0.83Q64.90 1.28 60.48 1.28L60.48 1.28L60.48 1.28Q56.06 1.28 53.47 0.32L53.47 0.32L53.47 0.32Q50.88-0.64 49.15-2.43L49.15-2.43L49.15-2.43Q45.76-5.82 45.76-12.03L45.76-12.03L45.76-12.03Q45.76-21.70 51.01-27.58L51.01-27.58L51.01-27.58Q56.64-33.92 66.43-33.92L66.43-33.92L66.43-33.92Q72.51-33.92 75.52-31.36L75.52-31.36L75.52-31.36Q77.76-29.44 77.76-26.30L77.76-26.30L77.76-26.30Q77.76-15.04 58.30-15.04L58.30-15.04L58.30-15.04Q58.05-13.38 58.05-11.97L58.05-11.97L58.05-11.97Q58.05-9.02 59.36-7.90L59.36-7.90L59.36-7.90Q60.67-6.78 63.10-6.78L63.10-6.78L63.10-6.78Q65.54-6.78 68.13-7.90L68.13-7.90L68.13-7.90Q70.72-9.02 71.81-10.82ZM58.75-17.79L58.75-17.79L58.75-17.79Q63.30-17.79 65.92-20.61L65.92-20.61L65.92-20.61Q68.54-23.30 68.54-27.58L68.54-27.58L68.54-27.58Q68.54-29.06 68-29.86L68-29.86L68-29.86Q67.46-30.66 66.37-30.66L66.37-30.66L66.37-30.66Q65.28-30.66 64.35-30.24L64.35-30.24L64.35-30.24Q63.42-29.82 62.46-28.42L62.46-28.42L62.46-28.42Q60.10-25.22 58.75-17.79ZM95.23-3.52L95.23-3.52L95.23-3.52Q93.25 1.28 86.91 1.28L86.91 1.28L86.91 1.28Q83.71 1.28 81.66-0.96L81.66-0.96L81.66-0.96Q80.00-2.82 80.00-4.93L80.00-4.93L80.00-4.93Q80.00-9.73 82.24-20.22L82.24-20.22L86.91-44.80L99.90-46.08L93.70-13.70L93.70-13.70Q92.61-8.96 92.61-7.30L92.61-7.30L92.61-7.30Q92.61-3.65 95.23-3.52ZM116.03-3.52L116.03-3.52L116.03-3.52Q114.05 1.28 107.71 1.28L107.71 1.28L107.71 1.28Q104.45 1.28 102.40-0.96L102.40-0.96L102.40-0.96Q100.67-2.94 100.67-4.93L100.67-4.93L100.67-4.93Q100.67-10.11 103.04-20.22L103.04-20.22L105.41-32.64L118.40-33.92L114.50-13.70L114.50-13.70Q113.41-8.96 113.41-7.30L113.41-7.30L113.41-7.30Q113.41-3.65 116.03-3.52ZM106.56-41.54L106.56-41.54L106.56-41.54Q106.56-44.03 108.64-45.38L108.64-45.38L108.64-45.38Q110.72-46.72 113.73-46.72L113.73-46.72L113.73-46.72Q116.74-46.72 118.56-45.38L118.56-45.38L118.56-45.38Q120.38-44.03 120.38-41.54L120.38-41.54L120.38-41.54Q120.38-39.04 118.37-37.76L118.37-37.76L118.37-37.76Q116.35-36.48 113.34-36.48L113.34-36.48L113.34-36.48Q110.34-36.48 108.45-37.76L108.45-37.76L108.45-37.76Q106.56-39.04 106.56-41.54ZM152.90-26.62L152.90-26.62L152.90-26.62Q152.90-23.94 150.66-22.27L150.66-22.27L150.66-22.27Q148.42-20.61 144.77-20.61L144.77-20.61L144.77-20.61Q143.23-20.61 142.34-21.06L142.34-21.06L142.34-21.06Q143.04-22.72 143.26-24.80L143.26-24.80L143.26-24.80Q143.49-26.88 143.49-27.46L143.49-27.46L143.49-27.46Q143.49-30.14 141.63-30.14L141.63-30.14L141.63-30.14Q140.35-30.14 138.91-28.54L138.91-28.54L138.91-28.54Q137.47-26.94 136.26-24.45L136.26-24.45L136.26-24.45Q133.57-18.69 133.57-12.86L133.57-12.86L133.57-12.86Q133.57-9.66 134.78-8.22L134.78-8.22L134.78-8.22Q136-6.78 138.69-6.78L138.69-6.78L138.69-6.78Q142.40-6.78 145.34-9.86L145.34-9.86L145.34-9.86Q146.18-10.82 146.62-11.90L146.62-11.90L146.62-11.90Q149.06-10.62 149.06-7.10L149.06-7.10L149.06-7.10Q149.06-3.52 145.09-1.15L145.09-1.15L145.09-1.15Q140.99 1.28 134.46 1.28L134.46 1.28L134.46 1.28Q121.47 1.28 121.47-12.48L121.47-12.48L121.47-12.48Q121.47-22.53 127.17-28.29L127.17-28.29L127.17-28.29Q132.67-33.92 142.78-33.92L142.78-33.92L142.78-33.92Q152.90-33.92 152.90-26.62ZM169.98-3.52L169.98-3.52L169.98-3.52Q168 1.28 161.66 1.28L161.66 1.28L161.66 1.28Q158.40 1.28 156.35-0.96L156.35-0.96L156.35-0.96Q154.62-2.94 154.62-4.93L154.62-4.93L154.62-4.93Q154.62-10.11 156.99-20.22L156.99-20.22L159.36-32.64L172.35-33.92L168.45-13.70L168.45-13.70Q167.36-8.96 167.36-7.30L167.36-7.30L167.36-7.30Q167.36-3.65 169.98-3.52ZM160.51-41.54L160.51-41.54L160.51-41.54Q160.51-44.03 162.59-45.38L162.59-45.38L162.59-45.38Q164.67-46.72 167.68-46.72L167.68-46.72L167.68-46.72Q170.69-46.72 172.51-45.38L172.51-45.38L172.51-45.38Q174.34-44.03 174.34-41.54L174.34-41.54L174.34-41.54Q174.34-39.04 172.32-37.76L172.32-37.76L172.32-37.76Q170.30-36.48 167.30-36.48L167.30-36.48L167.30-36.48Q164.29-36.48 162.40-37.76L162.40-37.76L162.40-37.76Q160.51-39.04 160.51-41.54ZM189.38 1.28L189.38 1.28L189.38 1.28Q175.30 1.28 175.30-11.97L175.30-11.97L175.30-11.97Q175.30-21.38 180.48-27.46L180.48-27.46L180.48-27.46Q185.98-33.92 195.52-33.92L195.52-33.92L195.52-33.92Q202.43-33.92 205.95-30.72L205.95-30.72L205.95-30.72Q209.47-27.52 209.47-20.80L209.47-20.80L209.47-20.80Q209.47-10.56 203.97-4.61L203.97-4.61L203.97-4.61Q198.59 1.28 189.38 1.28ZM191.04-26.56L191.04-26.56L191.04-26.56Q190.27-24.83 189.66-22.24L189.66-22.24L189.66-22.24Q189.06-19.65 188.29-15.55L188.29-15.55L188.29-15.55Q187.52-11.46 187.52-6.40L187.52-6.40L187.52-6.40Q187.52-4.74 188.06-3.65L188.06-3.65L188.06-3.65Q188.61-2.56 190.08-2.56L190.08-2.56L190.08-2.56Q191.55-2.56 192.48-3.26L192.48-3.26L192.48-3.26Q193.41-3.97 194.11-5.63L194.11-5.63L194.11-5.63Q195.39-8.58 196.42-14.05L196.42-14.05L196.42-14.05Q197.44-19.52 197.54-21.89L197.54-21.89L197.54-21.89Q197.63-24.26 197.63-26.02L197.63-26.02L197.63-26.02Q197.63-27.78 197.12-28.93L197.12-28.93L197.12-28.93Q196.61-30.08 195.17-30.08L195.17-30.08L195.17-30.08Q193.73-30.08 192.77-29.18L192.77-29.18L192.77-29.18Q191.81-28.29 191.04-26.56ZM233.79-2.69L233.79-2.69L233.79-2.69Q230.72 1.28 223.10 1.28L223.10 1.28L223.10 1.28Q219.14 1.28 216.26-1.12L216.26-1.12L216.26-1.12Q213.38-3.52 213.38-6.98L213.38-6.98L213.38-6.98Q213.38-8.90 213.57-9.86L213.57-9.86L217.86-32.64L230.85-33.92L226.18-9.22L226.18-9.22Q225.92-7.81 225.92-6.98L225.92-6.98L225.92-6.98Q225.92-3.26 228.16-3.26L228.16-3.26L228.16-3.26Q230.66-3.26 232.45-6.66L232.45-6.66L232.45-6.66Q233.02-7.74 233.28-9.15L233.28-9.15L237.82-32.64L250.43-33.92L245.70-8.96L245.70-8.96Q245.50-8 245.50-6.98L245.50-6.98L245.50-6.98Q245.50-5.95 246.08-4.83L246.08-4.83L246.08-4.83Q246.66-3.71 248.51-3.46L248.51-3.46L248.51-3.46Q248.13-1.92 246.78-0.90L246.78-0.90L246.78-0.90Q243.97 1.28 240.93 1.28L240.93 1.28L240.93 1.28Q237.89 1.28 236.10 0.19L236.10 0.19L236.10 0.19Q234.30-0.90 233.79-2.69ZM273.02-22.46L273.02-22.46L273.02-22.46Q273.92-24.83 273.92-26.88L273.92-26.88L273.92-26.88Q273.92-30.66 270.85-30.66L270.85-30.66L270.85-30.66Q269.25-30.66 267.94-29.22L267.94-29.22L267.94-29.22Q266.62-27.78 266.62-25.98L266.62-25.98L266.62-25.98Q266.62-24.70 267.65-23.68L267.65-23.68L267.65-23.68Q269.12-22.27 272.90-19.97L272.90-19.97L272.90-19.97Q276.67-17.66 278.11-15.78L278.11-15.78L278.11-15.78Q279.55-13.89 279.55-11.30L279.55-11.30L279.55-11.30Q279.55-8.70 278.30-6.34L278.30-6.34L278.30-6.34Q277.06-3.97 274.82-2.30L274.82-2.30L274.82-2.30Q270.02 1.28 262.34 1.28L262.34 1.28L262.34 1.28Q258.18 1.28 254.98-0.90L254.98-0.90L254.98-0.90Q251.78-3.01 251.78-5.50L251.78-5.50L251.78-5.50Q251.78-8 253.60-9.47L253.60-9.47L253.60-9.47Q255.42-10.94 258.11-10.94L258.11-10.94L258.11-10.94Q260.80-10.94 262.46-9.92L262.46-9.92L262.46-9.92Q261.63-7.81 261.63-6.40L261.63-6.40L261.63-6.40Q261.63-2.18 265.22-2.18L265.22-2.18L265.22-2.18Q266.75-2.18 267.78-3.14L267.78-3.14L267.78-3.14Q268.80-4.10 268.80-5.76L268.80-5.76L268.80-5.76Q268.80-9.02 263.30-12.48L263.30-12.48L263.30-12.48Q258.82-15.42 257.79-16.58L257.79-16.58L257.79-16.58Q256.06-18.62 256.06-21.18L256.06-21.18L256.06-21.18Q256.06-23.74 257.28-26.18L257.28-26.18L257.28-26.18Q258.50-28.61 260.74-30.34L260.74-30.34L260.74-30.34Q265.41-33.92 273.54-33.92L273.54-33.92L273.54-33.92Q277.70-33.92 280.16-32.26L280.16-32.26L280.16-32.26Q282.62-30.59 282.62-27.78L282.62-27.78L282.62-27.78Q282.62-24.96 280.93-23.36L280.93-23.36L280.93-23.36Q279.23-21.76 276.16-21.76L276.16-21.76L276.16-21.76Q274.05-21.76 273.02-22.46ZM283.26-3.78L283.26-3.78L283.26-3.78Q283.26-6.21 285.09-7.52L285.09-7.52L285.09-7.52Q286.91-8.83 289.60-8.83L289.60-8.83L289.60-8.83Q292.29-8.83 293.98-7.52L293.98-7.52L293.98-7.52Q295.68-6.21 295.68-3.78L295.68-3.78L295.68-3.78Q295.68-1.34 293.79 0L293.79 0L293.79 0Q291.90 1.34 289.22 1.34L289.22 1.34L289.22 1.34Q286.53 1.34 284.90 0L284.90 0L284.90 0Q283.26-1.34 283.26-3.78ZM286.72-15.81L286.72-15.81L286.72-15.81Q286.72-16.26 286.85-16.90L286.85-16.90L291.84-42.62L291.84-42.62Q294.21-43.52 297.02-43.52L297.02-43.52L297.02-43.52Q299.84-43.52 301.31-41.73L301.31-41.73L301.31-41.73Q302.78-39.94 302.78-37.28L302.78-37.28L302.78-37.28Q302.78-34.62 301.76-31.65L301.76-31.65L301.76-31.65Q300.74-28.67 299.49-25.66L299.49-25.66L299.49-25.66Q298.24-22.66 297.18-19.55L297.18-19.55L297.18-19.55Q296.13-16.45 296.06-13.18L296.06-13.18L296.06-13.18Q294.59-11.52 292.03-11.52L292.03-11.52L292.03-11.52Q289.47-11.52 288.10-12.70L288.10-12.70L288.10-12.70Q286.72-13.89 286.72-15.81Z" fill="url(#editing-shadow-gradient1)"></path></g></g></g></g><g><g transform="translate(-150.9283196926117, 24.030000686645508)"><path d="M42.62-26.56L42.62-26.56L42.62-26.56Q42.62 0.70 13.06 0.70L13.06 0.70L13.06 0.70Q8.32 0.70 0.51-0.45L0.51-0.45L7.68-38.27L7.68-38.27Q8.19-40.83 8.51-42.30L8.51-42.30L8.51-42.30Q18.24-43.01 22.56-43.01L22.56-43.01L22.56-43.01Q26.88-43.01 30.85-42.11L30.85-42.11L30.85-42.11Q34.82-41.22 37.44-39.23L37.44-39.23L37.44-39.23Q42.62-35.33 42.62-26.56ZM29.44-28.93L29.44-28.93L29.44-28.93Q29.44-38.46 22.59-38.46L22.59-38.46L21.95-38.46L21.95-38.46Q21.63-38.46 21.31-38.40L21.31-38.40L14.72-4.03L14.72-4.03Q14.98-3.90 15.23-3.90L15.23-3.90L15.74-3.90L15.74-3.90Q18.11-3.90 20.58-5.38L20.58-5.38L20.58-5.38Q23.04-6.85 24.96-9.86L24.96-9.86L24.96-9.86Q29.44-16.83 29.44-28.93ZM71.81-10.82L71.81-10.82L71.81-10.82Q73.41-9.73 73.41-7.33L73.41-7.33L73.41-7.33Q73.41-4.93 72.19-3.39L72.19-3.39L72.19-3.39Q70.98-1.86 68.99-0.83L68.99-0.83L68.99-0.83Q64.90 1.28 60.48 1.28L60.48 1.28L60.48 1.28Q56.06 1.28 53.47 0.32L53.47 0.32L53.47 0.32Q50.88-0.64 49.15-2.43L49.15-2.43L49.15-2.43Q45.76-5.82 45.76-12.03L45.76-12.03L45.76-12.03Q45.76-21.70 51.01-27.58L51.01-27.58L51.01-27.58Q56.64-33.92 66.43-33.92L66.43-33.92L66.43-33.92Q72.51-33.92 75.52-31.36L75.52-31.36L75.52-31.36Q77.76-29.44 77.76-26.30L77.76-26.30L77.76-26.30Q77.76-15.04 58.30-15.04L58.30-15.04L58.30-15.04Q58.05-13.38 58.05-11.97L58.05-11.97L58.05-11.97Q58.05-9.02 59.36-7.90L59.36-7.90L59.36-7.90Q60.67-6.78 63.10-6.78L63.10-6.78L63.10-6.78Q65.54-6.78 68.13-7.90L68.13-7.90L68.13-7.90Q70.72-9.02 71.81-10.82ZM58.75-17.79L58.75-17.79L58.75-17.79Q63.30-17.79 65.92-20.61L65.92-20.61L65.92-20.61Q68.54-23.30 68.54-27.58L68.54-27.58L68.54-27.58Q68.54-29.06 68-29.86L68-29.86L68-29.86Q67.46-30.66 66.37-30.66L66.37-30.66L66.37-30.66Q65.28-30.66 64.35-30.24L64.35-30.24L64.35-30.24Q63.42-29.82 62.46-28.42L62.46-28.42L62.46-28.42Q60.10-25.22 58.75-17.79ZM95.23-3.52L95.23-3.52L95.23-3.52Q93.25 1.28 86.91 1.28L86.91 1.28L86.91 1.28Q83.71 1.28 81.66-0.96L81.66-0.96L81.66-0.96Q80.00-2.82 80.00-4.93L80.00-4.93L80.00-4.93Q80.00-9.73 82.24-20.22L82.24-20.22L86.91-44.80L99.90-46.08L93.70-13.70L93.70-13.70Q92.61-8.96 92.61-7.30L92.61-7.30L92.61-7.30Q92.61-3.65 95.23-3.52ZM116.03-3.52L116.03-3.52L116.03-3.52Q114.05 1.28 107.71 1.28L107.71 1.28L107.71 1.28Q104.45 1.28 102.40-0.96L102.40-0.96L102.40-0.96Q100.67-2.94 100.67-4.93L100.67-4.93L100.67-4.93Q100.67-10.11 103.04-20.22L103.04-20.22L105.41-32.64L118.40-33.92L114.50-13.70L114.50-13.70Q113.41-8.96 113.41-7.30L113.41-7.30L113.41-7.30Q113.41-3.65 116.03-3.52ZM106.56-41.54L106.56-41.54L106.56-41.54Q106.56-44.03 108.64-45.38L108.64-45.38L108.64-45.38Q110.72-46.72 113.73-46.72L113.73-46.72L113.73-46.72Q116.74-46.72 118.56-45.38L118.56-45.38L118.56-45.38Q120.38-44.03 120.38-41.54L120.38-41.54L120.38-41.54Q120.38-39.04 118.37-37.76L118.37-37.76L118.37-37.76Q116.35-36.48 113.34-36.48L113.34-36.48L113.34-36.48Q110.34-36.48 108.45-37.76L108.45-37.76L108.45-37.76Q106.56-39.04 106.56-41.54ZM152.90-26.62L152.90-26.62L152.90-26.62Q152.90-23.94 150.66-22.27L150.66-22.27L150.66-22.27Q148.42-20.61 144.77-20.61L144.77-20.61L144.77-20.61Q143.23-20.61 142.34-21.06L142.34-21.06L142.34-21.06Q143.04-22.72 143.26-24.80L143.26-24.80L143.26-24.80Q143.49-26.88 143.49-27.46L143.49-27.46L143.49-27.46Q143.49-30.14 141.63-30.14L141.63-30.14L141.63-30.14Q140.35-30.14 138.91-28.54L138.91-28.54L138.91-28.54Q137.47-26.94 136.26-24.45L136.26-24.45L136.26-24.45Q133.57-18.69 133.57-12.86L133.57-12.86L133.57-12.86Q133.57-9.66 134.78-8.22L134.78-8.22L134.78-8.22Q136-6.78 138.69-6.78L138.69-6.78L138.69-6.78Q142.40-6.78 145.34-9.86L145.34-9.86L145.34-9.86Q146.18-10.82 146.62-11.90L146.62-11.90L146.62-11.90Q149.06-10.62 149.06-7.10L149.06-7.10L149.06-7.10Q149.06-3.52 145.09-1.15L145.09-1.15L145.09-1.15Q140.99 1.28 134.46 1.28L134.46 1.28L134.46 1.28Q121.47 1.28 121.47-12.48L121.47-12.48L121.47-12.48Q121.47-22.53 127.17-28.29L127.17-28.29L127.17-28.29Q132.67-33.92 142.78-33.92L142.78-33.92L142.78-33.92Q152.90-33.92 152.90-26.62ZM169.98-3.52L169.98-3.52L169.98-3.52Q168 1.28 161.66 1.28L161.66 1.28L161.66 1.28Q158.40 1.28 156.35-0.96L156.35-0.96L156.35-0.96Q154.62-2.94 154.62-4.93L154.62-4.93L154.62-4.93Q154.62-10.11 156.99-20.22L156.99-20.22L159.36-32.64L172.35-33.92L168.45-13.70L168.45-13.70Q167.36-8.96 167.36-7.30L167.36-7.30L167.36-7.30Q167.36-3.65 169.98-3.52ZM160.51-41.54L160.51-41.54L160.51-41.54Q160.51-44.03 162.59-45.38L162.59-45.38L162.59-45.38Q164.67-46.72 167.68-46.72L167.68-46.72L167.68-46.72Q170.69-46.72 172.51-45.38L172.51-45.38L172.51-45.38Q174.34-44.03 174.34-41.54L174.34-41.54L174.34-41.54Q174.34-39.04 172.32-37.76L172.32-37.76L172.32-37.76Q170.30-36.48 167.30-36.48L167.30-36.48L167.30-36.48Q164.29-36.48 162.40-37.76L162.40-37.76L162.40-37.76Q160.51-39.04 160.51-41.54ZM189.38 1.28L189.38 1.28L189.38 1.28Q175.30 1.28 175.30-11.97L175.30-11.97L175.30-11.97Q175.30-21.38 180.48-27.46L180.48-27.46L180.48-27.46Q185.98-33.92 195.52-33.92L195.52-33.92L195.52-33.92Q202.43-33.92 205.95-30.72L205.95-30.72L205.95-30.72Q209.47-27.52 209.47-20.80L209.47-20.80L209.47-20.80Q209.47-10.56 203.97-4.61L203.97-4.61L203.97-4.61Q198.59 1.28 189.38 1.28ZM191.04-26.56L191.04-26.56L191.04-26.56Q190.27-24.83 189.66-22.24L189.66-22.24L189.66-22.24Q189.06-19.65 188.29-15.55L188.29-15.55L188.29-15.55Q187.52-11.46 187.52-6.40L187.52-6.40L187.52-6.40Q187.52-4.74 188.06-3.65L188.06-3.65L188.06-3.65Q188.61-2.56 190.08-2.56L190.08-2.56L190.08-2.56Q191.55-2.56 192.48-3.26L192.48-3.26L192.48-3.26Q193.41-3.97 194.11-5.63L194.11-5.63L194.11-5.63Q195.39-8.58 196.42-14.05L196.42-14.05L196.42-14.05Q197.44-19.52 197.54-21.89L197.54-21.89L197.54-21.89Q197.63-24.26 197.63-26.02L197.63-26.02L197.63-26.02Q197.63-27.78 197.12-28.93L197.12-28.93L197.12-28.93Q196.61-30.08 195.17-30.08L195.17-30.08L195.17-30.08Q193.73-30.08 192.77-29.18L192.77-29.18L192.77-29.18Q191.81-28.29 191.04-26.56ZM233.79-2.69L233.79-2.69L233.79-2.69Q230.72 1.28 223.10 1.28L223.10 1.28L223.10 1.28Q219.14 1.28 216.26-1.12L216.26-1.12L216.26-1.12Q213.38-3.52 213.38-6.98L213.38-6.98L213.38-6.98Q213.38-8.90 213.57-9.86L213.57-9.86L217.86-32.64L230.85-33.92L226.18-9.22L226.18-9.22Q225.92-7.81 225.92-6.98L225.92-6.98L225.92-6.98Q225.92-3.26 228.16-3.26L228.16-3.26L228.16-3.26Q230.66-3.26 232.45-6.66L232.45-6.66L232.45-6.66Q233.02-7.74 233.28-9.15L233.28-9.15L237.82-32.64L250.43-33.92L245.70-8.96L245.70-8.96Q245.50-8 245.50-6.98L245.50-6.98L245.50-6.98Q245.50-5.95 246.08-4.83L246.08-4.83L246.08-4.83Q246.66-3.71 248.51-3.46L248.51-3.46L248.51-3.46Q248.13-1.92 246.78-0.90L246.78-0.90L246.78-0.90Q243.97 1.28 240.93 1.28L240.93 1.28L240.93 1.28Q237.89 1.28 236.10 0.19L236.10 0.19L236.10 0.19Q234.30-0.90 233.79-2.69ZM273.02-22.46L273.02-22.46L273.02-22.46Q273.92-24.83 273.92-26.88L273.92-26.88L273.92-26.88Q273.92-30.66 270.85-30.66L270.85-30.66L270.85-30.66Q269.25-30.66 267.94-29.22L267.94-29.22L267.94-29.22Q266.62-27.78 266.62-25.98L266.62-25.98L266.62-25.98Q266.62-24.70 267.65-23.68L267.65-23.68L267.65-23.68Q269.12-22.27 272.90-19.97L272.90-19.97L272.90-19.97Q276.67-17.66 278.11-15.78L278.11-15.78L278.11-15.78Q279.55-13.89 279.55-11.30L279.55-11.30L279.55-11.30Q279.55-8.70 278.30-6.34L278.30-6.34L278.30-6.34Q277.06-3.97 274.82-2.30L274.82-2.30L274.82-2.30Q270.02 1.28 262.34 1.28L262.34 1.28L262.34 1.28Q258.18 1.28 254.98-0.90L254.98-0.90L254.98-0.90Q251.78-3.01 251.78-5.50L251.78-5.50L251.78-5.50Q251.78-8 253.60-9.47L253.60-9.47L253.60-9.47Q255.42-10.94 258.11-10.94L258.11-10.94L258.11-10.94Q260.80-10.94 262.46-9.92L262.46-9.92L262.46-9.92Q261.63-7.81 261.63-6.40L261.63-6.40L261.63-6.40Q261.63-2.18 265.22-2.18L265.22-2.18L265.22-2.18Q266.75-2.18 267.78-3.14L267.78-3.14L267.78-3.14Q268.80-4.10 268.80-5.76L268.80-5.76L268.80-5.76Q268.80-9.02 263.30-12.48L263.30-12.48L263.30-12.48Q258.82-15.42 257.79-16.58L257.79-16.58L257.79-16.58Q256.06-18.62 256.06-21.18L256.06-21.18L256.06-21.18Q256.06-23.74 257.28-26.18L257.28-26.18L257.28-26.18Q258.50-28.61 260.74-30.34L260.74-30.34L260.74-30.34Q265.41-33.92 273.54-33.92L273.54-33.92L273.54-33.92Q277.70-33.92 280.16-32.26L280.16-32.26L280.16-32.26Q282.62-30.59 282.62-27.78L282.62-27.78L282.62-27.78Q282.62-24.96 280.93-23.36L280.93-23.36L280.93-23.36Q279.23-21.76 276.16-21.76L276.16-21.76L276.16-21.76Q274.05-21.76 273.02-22.46ZM283.26-3.78L283.26-3.78L283.26-3.78Q283.26-6.21 285.09-7.52L285.09-7.52L285.09-7.52Q286.91-8.83 289.60-8.83L289.60-8.83L289.60-8.83Q292.29-8.83 293.98-7.52L293.98-7.52L293.98-7.52Q295.68-6.21 295.68-3.78L295.68-3.78L295.68-3.78Q295.68-1.34 293.79 0L293.79 0L293.79 0Q291.90 1.34 289.22 1.34L289.22 1.34L289.22 1.34Q286.53 1.34 284.90 0L284.90 0L284.90 0Q283.26-1.34 283.26-3.78ZM286.72-15.81L286.72-15.81L286.72-15.81Q286.72-16.26 286.85-16.90L286.85-16.90L291.84-42.62L291.84-42.62Q294.21-43.52 297.02-43.52L297.02-43.52L297.02-43.52Q299.84-43.52 301.31-41.73L301.31-41.73L301.31-41.73Q302.78-39.94 302.78-37.28L302.78-37.28L302.78-37.28Q302.78-34.62 301.76-31.65L301.76-31.65L301.76-31.65Q300.74-28.67 299.49-25.66L299.49-25.66L299.49-25.66Q298.24-22.66 297.18-19.55L297.18-19.55L297.18-19.55Q296.13-16.45 296.06-13.18L296.06-13.18L296.06-13.18Q294.59-11.52 292.03-11.52L292.03-11.52L292.03-11.52Q289.47-11.52 288.10-12.70L288.10-12.70L288.10-12.70Q286.72-13.89 286.72-15.81Z" fill="url(#editing-shadow-gradient2)"></path></g></g></g><style>text {
  font-size: 64px;
  font-family: Arial Black;
  dominant-baseline: central;
  text-anchor: middle;
}</style></svg>