<svg width="444.8424072265625px" height="130.60870361328125px" xmlns="http://www.w3.org/2000/svg" viewBox="27.57879638671875 9.695648193359375 444.8424072265625 130.60870361328125" style="background: rgba(0, 0, 0, 0);" preserveAspectRatio="xMidYMid"><defs><filter id="editing-extrusion" x="-100%" y="-100%" width="300%" height="300%"><feFlood result="color1" flood-color="#444444"></feFlood><feConvolveMatrix order="3,3" divisor="1" kernelMatrix="1 0 0 0 1 0 0 0 1" in="SourceAlpha" result="extrude"></feConvolveMatrix><feComposite in="color1" in2="extrude" result="comp-extrude" operator="in"></feComposite><feOffset dx="1.5" dy="1.5" in="comp-extrude" result="offset-extrude"></feOffset><feMerge><feMergeNode in="offset-extrude"></feMergeNode><feMergeNode in="SourceGraphic"></feMergeNode></feMerge></filter></defs><g filter="url(#editing-extrusion)"><g transform="translate(93.5199921131134, 101.30500221252441)"><path d="M4.26 0.21L4.26 0.21Q3.69 0.21 3.37-0.25L3.37-0.25L3.37-0.25Q3.05-0.71 3.05-1.35L3.05-1.35L3.05-1.35Q3.12-2.41 3.48-2.63L3.48-2.63L3.48-2.63Q3.83-2.84 4.83-2.84L4.83-2.84L4.83-2.84Q6.89-2.84 7.88-3.59L7.88-3.59L7.88-3.59Q8.88-4.33 9.12-5.43L9.12-5.43L9.12-5.43Q9.37-6.53 9.44-8.31L9.44-8.31L9.44-36.49L9.44-36.49Q9.37-38.27 9.12-39.37L9.12-39.37L9.12-39.37Q8.88-40.47 7.88-41.22L7.88-41.22L7.88-41.22Q6.89-41.96 4.83-41.96L4.83-41.96L4.40-41.96L4.40-41.96Q3.69-41.96 3.41-42.21L3.41-42.21L3.41-42.21Q3.12-42.46 3.05-43.45L3.05-43.45L3.05-43.45Q3.05-44.09 3.37-44.55L3.37-44.55L3.37-44.55Q3.69-45.01 4.26-45.01L4.26-45.01L4.26-45.01Q8.95-44.80 12.71-44.80L12.71-44.80L23.79-44.80L23.79-44.80Q30.60-44.80 36.17-42.07L36.17-42.07L36.17-42.07Q41.75-39.33 44.98-34.22L44.98-34.22L44.98-34.22Q48.21-29.11 48.21-22.15L48.21-22.15L48.21-22.15Q48.21-14.91 44.55-9.90L44.55-9.90L44.55-9.90Q40.90-4.90 35.04-2.45L35.04-2.45L35.04-2.45Q29.18 0 22.51 0L22.51 0L12.71 0L12.71 0Q8.95 0 4.26 0.21L4.26 0.21ZM23.57-2.63L23.57-2.63Q31.88-2.63 35.75-7.77L35.75-7.77L35.75-7.77Q39.62-12.92 39.62-22.15L39.62-22.15L39.62-22.15Q39.62-27.97 37.52-32.55L37.52-32.55L37.52-32.55Q35.43-37.13 31.45-39.69L31.45-39.69L31.45-39.69Q27.48-42.25 22.01-42.25L22.01-42.25L16.47-42.17L16.47-7.46L16.47-7.46Q16.47-4.69 18.14-3.66L18.14-3.66L18.14-3.66Q19.81-2.63 23.57-2.63L23.57-2.63ZM71.21 0.85L71.21 0.85Q65.89 0.85 62.16-1.42L62.16-1.42L62.16-1.42Q58.43-3.69 56.52-7.60L56.52-7.60L56.52-7.60Q54.60-11.50 54.60-16.26L54.60-16.26L54.60-16.26Q54.60-20.45 56.55-24.32L56.55-24.32L56.55-24.32Q58.50-28.19 62.13-30.60L62.13-30.60L62.13-30.60Q65.75-33.02 70.43-33.02L70.43-33.02L70.43-33.02Q76.75-33.02 80.16-29.78L80.16-29.78L80.16-29.78Q83.57-26.55 84.06-21.09L84.06-21.09L84.06-21.09Q84.06-18.74 82.79-17.89L82.79-17.89L82.79-17.89Q81.51-17.04 79.09-17.04L79.09-17.04L61.84-17.04L61.84-17.04Q61.84-10.44 64.57-6.57L64.57-6.57L64.57-6.57Q67.31-2.70 73.06-2.70L73.06-2.70L73.06-2.70Q76.11-2.70 78.24-4.01L78.24-4.01L78.24-4.01Q80.37-5.33 82.29-8.45L82.29-8.45L82.29-8.45Q82.64-8.80 83.00-8.80L83.00-8.80L83.00-8.80Q83.50-8.80 83.85-8.52L83.85-8.52L83.85-8.52Q84.56-8.09 84.56-7.24L84.56-7.24L84.56-7.24Q84.56-6.82 84.42-6.60L84.42-6.60L84.42-6.60Q82.22-3.05 78.85-1.10L78.85-1.10L78.85-1.10Q75.47 0.85 71.21 0.85L71.21 0.85ZM61.84-19.74L73.41-19.74L73.41-19.74Q77.03-19.74 77.25-22.72L77.25-22.72L77.25-22.72Q77.25-25.99 75.47-28.26L75.47-28.26L75.47-28.26Q73.70-30.53 70.43-30.53L70.43-30.53L70.43-30.53Q66.81-30.53 64.47-27.65L64.47-27.65L64.47-27.65Q62.13-24.78 61.84-19.74L61.84-19.74ZM90.10 0.21L90.10 0.21Q89.60 0.21 89.28-0.21L89.28-0.21L89.28-0.21Q88.96-0.64 88.96-1.21L88.96-1.21L88.96-1.21Q89.03-2.13 89.35-2.31L89.35-2.31L89.35-2.31Q89.67-2.49 90.60-2.49L90.60-2.49L90.60-2.49Q92.44-2.49 93.22-3.12L93.22-3.12L93.22-3.12Q94.00-3.76 94.15-4.62L94.15-4.62L94.15-4.62Q94.29-5.47 94.29-7.31L94.29-7.31L94.29-41.96L94.29-41.96Q94.29-43.81 94.18-44.66L94.18-44.66L94.18-44.66Q94.08-45.51 93.29-46.15L93.29-46.15L93.29-46.15Q92.51-46.79 90.67-46.79L90.67-46.79L90.67-46.79Q89.82-46.79 89.39-47.04L89.39-47.04L89.39-47.04Q88.96-47.29 88.96-48.21L88.96-48.21L88.96-48.21Q88.96-48.64 89.25-49.03L89.25-49.03L89.25-49.03Q89.53-49.42 90.10-49.49L90.10-49.49L90.10-49.49Q94.57-50.13 97.77-51.33L97.77-51.33L97.77-51.33Q98.76-51.69 99.40-51.76L99.40-51.76L99.61-51.76L99.61-51.76Q100.75-51.76 100.75-50.41L100.75-50.41L100.75-7.31L100.75-7.31Q100.75-5.47 100.89-4.62L100.89-4.62L100.89-4.62Q101.03-3.76 101.81-3.12L101.81-3.12L101.81-3.12Q102.60-2.49 104.44-2.49L104.44-2.49L104.87-2.49L104.87-2.49Q105.44-2.49 105.72-2.27L105.72-2.27L105.72-2.27Q106.00-2.06 106.07-1.21L106.07-1.21L106.07-1.21Q106.07-0.64 105.79-0.21L105.79-0.21L105.79-0.21Q105.51 0.21 104.94 0.21L104.94 0.21L104.94 0.21Q100.82 0 97.48 0L97.48 0L97.48 0Q94.29 0 90.10 0.21L90.10 0.21ZM111.12 0.21L111.12 0.21Q110.62 0.21 110.30-0.21L110.30-0.21L110.30-0.21Q109.98-0.64 109.98-1.21L109.98-1.21L109.98-1.21Q110.05-2.13 110.41-2.31L110.41-2.31L110.41-2.31Q110.76-2.49 111.68-2.49L111.68-2.49L111.68-2.49Q113.53-2.49 114.31-3.12L114.31-3.12L114.31-3.12Q115.09-3.76 115.20-4.62L115.20-4.62L115.20-4.62Q115.30-5.47 115.30-7.31L115.30-7.31L115.30-23.57L115.30-23.57Q115.30-25.42 115.20-26.27L115.20-26.27L115.20-26.27Q115.09-27.12 114.31-27.76L114.31-27.76L114.31-27.76Q113.53-28.40 111.68-28.40L111.68-28.40L111.68-28.40Q110.83-28.40 110.41-28.65L110.41-28.65L110.41-28.65Q109.98-28.90 109.98-29.82L109.98-29.82L109.98-29.82Q109.98-30.25 110.26-30.64L110.26-30.64L110.26-30.64Q110.55-31.03 111.12-31.10L111.12-31.10L111.12-31.10Q115.59-31.74 118.78-32.94L118.78-32.94L118.78-32.94Q119.78-33.30 120.42-33.37L120.42-33.37L120.63-33.37L120.63-33.37Q121.77-33.37 121.77-32.02L121.77-32.02L121.77-7.31L121.77-7.31Q121.77-5.47 121.91-4.62L121.91-4.62L121.91-4.62Q122.05-3.76 122.83-3.12L122.83-3.12L122.83-3.12Q123.61-2.49 125.46-2.49L125.46-2.49L125.88-2.49L125.88-2.49Q126.45-2.49 126.74-2.27L126.74-2.27L126.74-2.27Q127.02-2.06 127.09-1.21L127.09-1.21L127.09-1.21Q127.09-0.64 126.81-0.21L126.81-0.21L126.81-0.21Q126.52 0.21 125.95 0.21L125.95 0.21L125.95 0.21Q121.84 0 118.50 0L118.50 0L118.50 0Q115.30 0 111.12 0.21L111.12 0.21ZM118.14-41.25L118.14-41.25Q116.16-41.25 114.81-42.49L114.81-42.49L114.81-42.49Q113.46-43.74 113.46-45.58L113.46-45.58L113.46-45.58Q113.46-47.22 115.09-48.49L115.09-48.49L115.09-48.49Q116.72-49.77 118.78-49.77L118.78-49.77L118.78-49.77Q120.56-49.77 121.69-48.53L121.69-48.53L121.69-48.53Q122.83-47.29 122.83-45.37L122.83-45.37L122.83-45.37Q122.83-43.67 121.48-42.46L121.48-42.46L121.48-42.46Q120.13-41.25 118.14-41.25L118.14-41.25ZM147.04 0.85L147.04 0.85Q139.80 0.85 135.68-3.76L135.68-3.76L135.68-3.76Q131.56-8.38 131.56-16.12L131.56-16.12L131.56-16.12Q131.71-20.95 133.94-24.74L133.94-24.74L133.94-24.74Q136.18-28.54 139.94-30.71L139.94-30.71L139.94-30.71Q143.70-32.87 148.25-33.02L148.25-33.02L148.25-33.02Q152.79-33.02 156.09-31.31L156.09-31.31L156.09-31.31Q159.40-29.61 159.40-25.63L159.40-25.63L159.40-25.63Q159.40-23.43 158.08-21.76L158.08-21.76L158.08-21.76Q156.77-20.09 154.57-20.09L154.57-20.09L154.57-20.09Q153.22-20.09 152.26-20.80L152.26-20.80L152.26-20.80Q151.30-21.51 151.30-22.01L151.30-22.01L151.30-22.01Q151.30-22.08 151.94-22.65L151.94-22.65L151.94-22.65Q152.58-23.22 153.11-24.03L153.11-24.03L153.11-24.03Q153.64-24.85 153.64-25.92L153.64-25.92L153.64-25.92Q153.64-28.12 152.05-29.25L152.05-29.25L152.05-29.25Q150.45-30.39 148.18-30.39L148.18-30.39L148.18-30.39Q142.71-30.39 140.76-26.38L140.76-26.38L140.76-26.38Q138.81-22.37 138.81-16.33L138.81-16.33L138.81-16.33Q138.81-10.37 141.50-6.53L141.50-6.53L141.50-6.53Q144.20-2.70 148.67-2.70L148.67-2.70L148.67-2.70Q151.73-2.70 153.89-4.01L153.89-4.01L153.89-4.01Q156.06-5.33 157.83-8.02L157.83-8.02L157.83-8.02Q158.05-8.38 158.54-8.38L158.54-8.38L158.54-8.38Q158.90-8.38 159.32-8.17L159.32-8.17L159.32-8.17Q159.68-8.02 159.89-7.67L159.89-7.67L159.89-7.67Q160.11-7.31 160.11-6.96L160.11-6.96L160.11-6.96Q160.11-6.75 159.89-6.39L159.89-6.39L159.89-6.39Q157.55-3.05 154.07-1.10L154.07-1.10L154.07-1.10Q150.59 0.85 147.04 0.85L147.04 0.85ZM165.86 0.21L165.86 0.21Q165.36 0.21 165.04-0.21L165.04-0.21L165.04-0.21Q164.72-0.64 164.72-1.21L164.72-1.21L164.72-1.21Q164.79-2.13 165.15-2.31L165.15-2.31L165.15-2.31Q165.50-2.49 166.42-2.49L166.42-2.49L166.42-2.49Q168.27-2.49 169.05-3.12L169.05-3.12L169.05-3.12Q169.83-3.76 169.94-4.62L169.94-4.62L169.94-4.62Q170.05-5.47 170.05-7.31L170.05-7.31L170.05-23.57L170.05-23.57Q170.05-25.42 169.94-26.27L169.94-26.27L169.94-26.27Q169.83-27.12 169.05-27.76L169.05-27.76L169.05-27.76Q168.27-28.40 166.42-28.40L166.42-28.40L166.42-28.40Q165.57-28.40 165.15-28.65L165.15-28.65L165.15-28.65Q164.72-28.90 164.72-29.82L164.72-29.82L164.72-29.82Q164.72-30.25 165.00-30.64L165.00-30.64L165.00-30.64Q165.29-31.03 165.86-31.10L165.86-31.10L165.86-31.10Q170.33-31.74 173.52-32.94L173.52-32.94L173.52-32.94Q174.52-33.30 175.16-33.37L175.16-33.37L175.37-33.37L175.37-33.37Q176.51-33.37 176.51-32.02L176.51-32.02L176.51-7.31L176.51-7.31Q176.51-5.47 176.65-4.62L176.65-4.62L176.65-4.62Q176.79-3.76 177.57-3.12L177.57-3.12L177.57-3.12Q178.35-2.49 180.20-2.49L180.20-2.49L180.62-2.49L180.62-2.49Q181.19-2.49 181.48-2.27L181.48-2.27L181.48-2.27Q181.76-2.06 181.83-1.21L181.83-1.21L181.83-1.21Q181.83-0.64 181.55-0.21L181.55-0.21L181.55-0.21Q181.26 0.21 180.70 0.21L180.70 0.21L180.70 0.21Q176.58 0 173.24 0L173.24 0L173.24 0Q170.05 0 165.86 0.21L165.86 0.21ZM172.89-41.25L172.89-41.25Q170.90-41.25 169.55-42.49L169.55-42.49L169.55-42.49Q168.20-43.74 168.20-45.58L168.20-45.58L168.20-45.58Q168.20-47.22 169.83-48.49L169.83-48.49L169.83-48.49Q171.47-49.77 173.52-49.77L173.52-49.77L173.52-49.77Q175.30-49.77 176.44-48.53L176.44-48.53L176.44-48.53Q177.57-47.29 177.57-45.37L177.57-45.37L177.57-45.37Q177.57-43.67 176.22-42.46L176.22-42.46L176.22-42.46Q174.87-41.25 172.89-41.25L172.89-41.25ZM202.85 0.85L202.85 0.85Q198.02 0.85 194.26-1.46L194.26-1.46L194.26-1.46Q190.49-3.76 188.40-7.56L188.40-7.56L188.40-7.56Q186.30-11.36 186.30-15.62L186.30-15.62L186.30-15.62Q186.30-20.95 188.79-24.89L188.79-24.89L188.79-24.89Q191.27-28.83 195.11-30.92L195.11-30.92L195.11-30.92Q198.94-33.02 202.85-33.02L202.85-33.02L202.85-33.02Q207.68-33.02 211.44-30.71L211.44-30.71L211.44-30.71Q215.20-28.40 217.30-24.60L217.30-24.60L217.30-24.60Q219.39-20.80 219.39-16.54L219.39-16.54L219.39-16.54Q219.39-11.22 216.87-7.28L216.87-7.28L216.87-7.28Q214.35-3.34 210.52-1.24L210.52-1.24L210.52-1.24Q206.68 0.85 202.85 0.85L202.85 0.85ZM202.85-1.78L202.85-1.78Q207.68-1.78 209.91-5.89L209.91-5.89L209.91-5.89Q212.15-10.01 212.15-16.54L212.15-16.54L212.15-16.54Q212.15-22.65 209.84-26.52L209.84-26.52L209.84-26.52Q207.53-30.39 202.85-30.39L202.85-30.39L202.85-30.39Q197.95-30.39 195.75-26.34L195.75-26.34L195.75-26.34Q193.55-22.29 193.55-15.76L193.55-15.76L193.55-15.76Q193.55-9.66 195.82-5.72L195.82-5.72L195.82-5.72Q198.09-1.78 202.85-1.78L202.85-1.78ZM239.34 0.85L239.34 0.85Q234.51 0.85 231.67-2.06L231.67-2.06L231.67-2.06Q228.83-4.97 228.83-9.73L228.83-9.73L228.83-22.86L228.83-22.86Q228.83-24.71 228.73-25.56L228.73-25.56L228.73-25.56Q228.62-26.41 227.84-27.05L227.84-27.05L227.84-27.05Q227.06-27.69 225.21-27.69L225.21-27.69L225.21-27.69Q224.36-27.69 223.93-27.94L223.93-27.94L223.93-27.94Q223.51-28.19 223.51-29.11L223.51-29.11L223.51-29.11Q223.51-29.54 223.79-29.93L223.79-29.93L223.79-29.93Q224.08-30.32 224.64-30.39L224.64-30.39L224.64-30.39Q229.12-31.03 232.31-32.23L232.31-32.23L232.31-32.23Q233.31-32.59 233.94-32.66L233.94-32.66L234.16-32.66L234.16-32.66Q235.29-32.66 235.29-31.31L235.29-31.31L235.29-9.80L235.29-9.80Q235.29-6.53 237.35-4.79L237.35-4.79L237.35-4.79Q239.41-3.05 242.11-3.05L242.11-3.05L242.11-3.05Q245.45-3.05 247.79-4.69L247.79-4.69L247.79-4.69Q250.13-6.32 250.91-7.95L250.91-7.95L250.91-22.86L250.91-22.86Q250.91-24.71 250.81-25.56L250.81-25.56L250.81-25.56Q250.70-26.41 249.92-27.05L249.92-27.05L249.92-27.05Q249.14-27.69 247.29-27.69L247.29-27.69L247.29-27.69Q246.44-27.69 246.01-27.94L246.01-27.94L246.01-27.94Q245.59-28.19 245.59-29.11L245.59-29.11L245.59-29.11Q245.59-29.54 245.87-29.93L245.87-29.93L245.87-29.93Q246.16-30.32 246.72-30.39L246.72-30.39L246.72-30.39Q251.20-31.03 254.39-32.23L254.39-32.23L254.39-32.23Q255.39-32.59 256.03-32.66L256.03-32.66L256.24-32.66L256.24-32.66Q257.38-32.66 257.38-31.31L257.38-31.31L257.38-6.75L257.38-6.75Q257.38-2.56 262.98-2.56L262.98-2.56L262.98-2.56Q264.19-2.56 264.19-1.21L264.19-1.21L264.19-1.21Q264.19-0.21 262.98 0L262.98 0L251.55 0.78L251.55 0.78Q251.06 0.78 250.98 0.46L250.98 0.46L250.98 0.46Q250.91 0.14 250.91-0.64L250.91-0.64L250.91-4.62L250.77-4.62L250.77-4.62Q248.71-2.70 247.44-1.67L247.44-1.67L247.44-1.67Q246.16-0.64 244.13 0.11L244.13 0.11L244.13 0.11Q242.11 0.85 239.34 0.85L239.34 0.85ZM280.09 0.85L280.09 0.85Q274.41 0.85 270.86-1.14L270.86-1.14L270.86-1.14Q267.31-3.12 267.31-6.75L267.31-6.75L267.31-6.75Q267.31-8.80 268.56-10.08L268.56-10.08L268.56-10.08Q269.80-11.36 271.79-11.36L271.79-11.36L271.79-11.36Q272.92-11.36 273.81-10.72L273.81-10.72L273.81-10.72Q274.70-10.08 274.70-9.73L274.70-9.73L274.70-9.73Q274.70-9.66 273.88-8.80L273.88-8.80L273.88-8.80Q273.07-7.95 273.07-6.39L273.07-6.39L273.07-6.39Q273.07-4.26 275.02-3.02L275.02-3.02L275.02-3.02Q276.97-1.78 280.66-1.78L280.66-1.78L280.66-1.78Q284.00-1.78 285.88-3.23L285.88-3.23L285.88-3.23Q287.76-4.69 287.76-7.31L287.76-7.31L287.76-7.31Q287.76-9.09 286.70-10.22L286.70-10.22L286.70-10.22Q285.63-11.36 284.04-12.00L284.04-12.00L284.04-12.00Q282.44-12.64 279.60-13.49L279.60-13.49L279.60-13.49Q276.12-14.48 273.92-15.48L273.92-15.48L273.92-15.48Q271.72-16.47 270.15-18.46L270.15-18.46L270.15-18.46Q268.59-20.45 268.59-23.64L268.59-23.64L268.59-23.64Q268.59-26.63 270.44-28.76L270.44-28.76L270.44-28.76Q272.28-30.89 275.23-31.95L275.23-31.95L275.23-31.95Q278.18-33.02 281.44-33.02L281.44-33.02L281.44-33.02Q285.63-33.02 288.72-31.24L288.72-31.24L288.72-31.24Q291.81-29.47 291.81-26.27L291.81-26.27L291.81-26.27Q291.81-24.35 290.64-23.00L290.64-23.00L290.64-23.00Q289.47-21.66 287.55-21.66L287.55-21.66L287.55-21.66Q286.41-21.66 285.53-22.29L285.53-22.29L285.53-22.29Q284.64-22.93 284.64-23.29L284.64-23.29L284.64-23.29Q284.64-23.36 285.21-23.86L285.21-23.86L285.21-23.86Q285.77-24.35 286.24-25.03L286.24-25.03L286.24-25.03Q286.70-25.70 286.70-26.63L286.70-26.63L286.70-26.63Q286.56-28.54 284.78-29.61L284.78-29.61L284.78-29.61Q283.01-30.67 280.59-30.67L280.59-30.67L280.59-30.67Q277.89-30.67 275.87-29.43L275.87-29.43L275.87-29.43Q273.85-28.19 273.85-25.99L273.85-25.99L273.85-25.99Q273.85-24.00 274.70-22.83L274.70-22.83L274.70-22.83Q275.55-21.66 277.25-20.95L277.25-20.95L277.25-20.95Q278.96-20.24 282.65-19.03L282.65-19.03L282.65-19.03Q286.41-17.82 288.54-16.79L288.54-16.79L288.54-16.79Q290.67-15.76 291.92-14.02L291.92-14.02L291.92-14.02Q293.16-12.28 293.16-9.44L293.16-9.44L293.16-9.44Q293.16-6.53 291.45-4.15L291.45-4.15L291.45-4.15Q289.75-1.78 286.77-0.46L286.77-0.46L286.77-0.46Q283.79 0.85 280.09 0.85L280.09 0.85ZM305.37-14.70L305.37-14.70Q304.80-14.70 304.23-14.98L304.23-14.98L304.23-14.98Q303.67-15.27 303.67-15.69L303.67-15.69L303.67-15.69Q303.67-18.74 302.74-26.41L302.74-26.41L302.74-26.41Q302.32-30.03 301.93-33.90L301.93-33.90L301.93-33.90Q301.54-37.77 301.54-40.47L301.54-40.47L301.54-40.47Q301.54-48.78 305.37-48.78L305.37-48.78L305.37-48.78Q309.20-48.78 309.20-40.47L309.20-40.47L309.20-40.47Q309.20-37.77 308.81-33.90L308.81-33.90L308.81-33.90Q308.42-30.03 308.00-26.41L308.00-26.41L308.00-26.41Q307.07-18.74 307.07-15.69L307.07-15.69L307.07-15.69Q307.07-15.19 306.58-14.95L306.58-14.95L306.58-14.95Q306.08-14.70 305.37-14.70L305.37-14.70ZM305.30 0.85L305.30 0.85Q303.38 0.85 302.10-0.43L302.10-0.43L302.10-0.43Q300.83-1.70 300.83-3.69L300.83-3.69L300.83-3.69Q300.83-5.61 302.14-6.89L302.14-6.89L302.14-6.89Q303.45-8.17 305.37-8.17L305.37-8.17L305.37-8.17Q307.36-8.17 308.64-6.89L308.64-6.89L308.64-6.89Q309.91-5.61 309.91-3.69L309.91-3.69L309.91-3.69Q309.91-1.70 308.64-0.43L308.64-0.43L308.64-0.43Q307.36 0.85 305.30 0.85L305.30 0.85Z" fill="#3be406"></path></g></g><style>text {
  font-size: 64px;
  font-family: Arial Black;
  dominant-baseline: central;
  text-anchor: middle;
}</style></svg>